 <svg className="mx-auto" width="19" height="21" viewBox="0 0 19 21" fill="none" xmlns="http://www.w3.org/2000/svg">
    <path
      fillRule="evenodd"
      clipRule="evenodd"
      d="M9.50121 13.4125L15.6508 19.7088C16.2677 20.3453 16.6691 20.3519 17.2973 19.7088L18.5312 18.4453C19.1356 17.8266 19.1766 17.4204 18.5312 16.7596L12.0205 10.0946L18.5318 3.42957C19.1416 2.80315 19.1534 2.38039 18.5318 1.74328L17.2979 0.480348C16.6578 -0.175168 16.2624 -0.144886 15.6514 0.480348L9.50121 6.77662L3.35159 0.480942C2.74061 -0.144292 2.34516 -0.174574 1.70508 0.480942L0.47124 1.74388C-0.151024 2.38099 -0.139743 2.80375 0.47124 3.43017L6.98186 10.0946L0.47124 16.7596C-0.174181 17.4204 -0.139743 17.8266 0.47124 18.4453L1.70449 19.7088C2.32735 20.3519 2.72873 20.3453 3.351 19.7088L9.50121 13.4125Z"
      fill="black"
    />
  </svg>