<svg width="42" height="44" viewBox="0 0 42 44" fill="none" xmlns="http://www.w3.org/2000/svg">
<path d="M7.23682 0H19.7369V11.8814H7.23682V0Z" fill="url(#paint0_linear)"/>
<path d="M7.23682 30.5547H19.7369V43.0019H7.23682V30.5547Z" fill="url(#paint1_linear)"/>
<path d="M19.7368 0H30.9211V10.1841H19.7368V0Z" fill="url(#paint2_linear)"/>
<path d="M19.7368 30.5547H30.9211V43.0019H19.7368V30.5547Z" fill="url(#paint3_linear)"/>
<path d="M2.14818 38.9413C1.40099 38.9413 0.85616 38.7942 0.513696 38.5001C0.171232 38.2059 0 37.7379 0 37.0962V32.4031C0 32.0555 0.0466996 31.7613 0.140099 31.5207C0.264631 31.28 0.435863 31.0794 0.653795 30.919L5.32376 27.5496C3.6737 27.1218 2.36611 26.3998 1.40099 25.3836C0.466996 24.3407 0 22.8566 0 20.9313V16.7196C0 15.5162 0.233498 14.4466 0.700494 13.5107C1.16749 12.5747 1.83685 11.7859 2.70858 11.1441L8.77953 6.77195C9.62012 6.18365 10.6631 5.72906 11.9084 5.40817C13.1537 5.06053 14.5703 4.88672 16.1581 4.88672H29.234C29.9812 4.88672 30.526 5.03379 30.8684 5.32794C31.2109 5.62209 31.3821 6.09006 31.3821 6.73184V11.5051C31.3821 11.8527 31.3199 12.1469 31.1953 12.3875C31.1019 12.6282 30.9463 12.8288 30.7284 12.9892L26.5254 15.9976C28.4868 16.3719 30.059 17.0806 31.242 18.1235C32.4562 19.1396 33.0633 20.7307 33.0633 22.8967V27.1084C33.0633 28.3118 32.8298 29.3814 32.3628 30.3173C31.8958 31.2533 31.2109 32.0421 30.3081 32.6839L24.2838 37.0159C23.4121 37.631 22.3535 38.0989 21.1082 38.4198C19.8629 38.7675 18.4619 38.9413 16.9053 38.9413H2.14818ZM22.9295 34.168C25.9183 34.168 28.2688 33.5664 29.9812 32.363C31.7246 31.1329 32.5963 29.3814 32.5963 27.1084V22.8967C32.5963 20.6505 31.927 19.046 30.5883 18.0834C29.2495 17.1207 27.4905 16.5056 25.3112 16.2382L18.3529 15.436C17.9482 15.4093 17.6369 15.2756 17.419 15.0349C17.201 14.7942 17.0921 14.5001 17.0921 14.1524C17.0921 13.8048 17.201 13.524 17.419 13.3101C17.6369 13.0694 17.9482 12.9491 18.3529 12.9491H29.234C29.8255 12.9491 30.2458 12.8421 30.4949 12.6282C30.775 12.3875 30.9151 12.0132 30.9151 11.5051V6.73184C30.9151 6.22377 30.775 5.86276 30.4949 5.64883C30.2458 5.40817 29.8255 5.28783 29.234 5.28783H16.1581C13.1382 5.28783 10.772 5.90287 9.05973 7.13296C7.34741 8.3363 6.49125 10.0745 6.49125 12.3474V16.5591C6.49125 18.8054 7.14504 20.4098 8.45263 21.3725C9.79135 22.3352 11.5504 22.9502 13.7297 23.2176L20.7346 24.06C21.1394 24.0867 21.4351 24.207 21.6219 24.421C21.8399 24.6349 21.9488 24.9691 21.9488 25.4237C21.9488 25.7446 21.8399 26.0254 21.6219 26.2661C21.4351 26.48 21.1394 26.587 20.7346 26.587H8.17243C7.5809 26.587 7.14504 26.7073 6.86484 26.948C6.61578 27.1619 6.49125 27.5229 6.49125 28.031V32.724C6.49125 33.2321 6.61578 33.6065 6.86484 33.8471C7.14504 34.0611 7.5809 34.168 8.17243 34.168H22.9295Z" fill="url(#paint4_linear)"/>
<path d="M22.969 34.181C25.9578 34.181 28.3083 33.5793 30.0207 32.376C31.7641 31.1459 32.6358 29.3943 32.6358 27.1214V22.9097C32.6358 20.6634 31.9665 19.059 30.6278 18.0963C29.289 17.1336 27.53 16.5186 25.3507 16.2512L18.3925 15.449C17.9877 15.4222 17.6764 15.2885 17.4585 15.0478C17.2405 14.8072 17.1316 14.513 17.1316 14.1654C17.1316 13.8178 17.2405 13.537 17.4585 13.3231C17.6764 13.0824 17.9877 12.9621 18.3925 12.9621H29.2735C29.865 12.9621 30.2853 12.8551 30.5344 12.6412C30.8146 12.4005 30.9547 12.0261 30.9547 11.518V6.74479C30.9547 6.23671 30.8146 5.87571 30.5344 5.66178C30.2853 5.42112 29.865 5.30078 29.2735 5.30078H16.1976C13.1777 5.30078 10.8116 5.91582 9.09924 7.14591C7.38692 8.34925 6.53076 10.0874 6.53076 12.3604V16.5721C6.53076 18.8183 7.18456 20.4228 8.49215 21.3854C9.83087 22.3481 11.5899 22.9632 13.7692 23.2306L20.7741 24.0729C21.1789 24.0996 21.4746 24.22 21.6614 24.4339C21.8794 24.6478 21.9883 24.9821 21.9883 25.4367C21.9883 25.7576 21.8794 26.0384 21.6614 26.279C21.4746 26.493 21.1789 26.5999 20.7741 26.5999H8.21195C7.62042 26.5999 7.18456 26.7203 6.90436 26.9609C6.65529 27.1749 6.53076 27.5359 6.53076 28.0439V32.737C6.53076 33.245 6.65529 33.6194 6.90436 33.8601C7.18456 34.074 7.62042 34.181 8.21195 34.181H22.969Z" fill="url(#paint5_linear)"/>
<path d="M32.895 8.44683V5.65625H33.9483C34.298 5.65625 34.5606 5.71886 34.7361 5.84408C34.9131 5.9693 35.0017 6.15457 35.0017 6.39989C35.0017 6.53022 34.9589 6.64586 34.8733 6.7468C34.7877 6.84646 34.6712 6.92376 34.5237 6.97871C34.6978 7.02087 34.835 7.10137 34.9353 7.2202C35.0371 7.33775 35.088 7.4783 35.088 7.64185C35.088 7.89229 34.9943 8.08906 34.8069 8.23217C34.6196 8.37527 34.3548 8.44683 34.0125 8.44683H32.895ZM33.3199 7.14162V8.14592H34.0214C34.219 8.14592 34.3747 8.10184 34.4883 8.01367C34.6033 7.92423 34.6609 7.80157 34.6609 7.64569C34.6609 7.30964 34.4499 7.14162 34.028 7.14162H33.3199ZM33.3199 6.84646H33.9616C34.1475 6.84646 34.2958 6.80621 34.4064 6.72572C34.5185 6.64522 34.5746 6.53597 34.5746 6.39798C34.5746 6.24465 34.5229 6.13348 34.4197 6.06449C34.3164 5.99421 34.1593 5.95907 33.9483 5.95907H33.3199V6.84646Z" fill="#2D14F4"/>
<path d="M36.648 8.48516C36.3235 8.48516 36.0594 8.39316 35.8558 8.20917C35.6522 8.0239 35.5504 7.77665 35.5504 7.46744V7.40228C35.5504 7.19656 35.5954 7.01321 35.6854 6.85221C35.7769 6.68994 35.9038 6.56344 36.066 6.47272C36.2298 6.38073 36.4068 6.33473 36.5971 6.33473C36.9084 6.33473 37.1503 6.42353 37.3229 6.60114C37.4955 6.77874 37.5818 7.03301 37.5818 7.36395V7.51152H35.9598C35.9657 7.71596 36.0343 7.88143 36.1656 8.00792C36.2984 8.13314 36.4666 8.19575 36.6702 8.19575C36.8147 8.19575 36.9372 8.1702 37.0375 8.11909C37.1378 8.06798 37.2256 8.00026 37.3008 7.91593L37.5509 8.08459C37.3502 8.35164 37.0493 8.48516 36.648 8.48516ZM36.5971 6.62605C36.4319 6.62605 36.2932 6.67844 36.1811 6.78321C36.069 6.88671 35.9997 7.03237 35.9731 7.2202H37.1725V7.19337C37.1607 7.01321 37.1046 6.87393 37.0043 6.77555C36.904 6.67588 36.7683 6.62605 36.5971 6.62605Z" fill="#2D14F4"/>
<path d="M38.613 5.87091V6.37306H39.06V6.64713H38.613V7.93318C38.613 8.01623 38.633 8.07884 38.6728 8.121C38.7126 8.16189 38.7805 8.18234 38.8764 8.18234C38.9236 8.18234 38.9885 8.17467 39.0711 8.15934V8.44683C38.9634 8.47238 38.8587 8.48516 38.7569 8.48516C38.5739 8.48516 38.436 8.43724 38.3431 8.34141C38.2501 8.24558 38.2037 8.1095 38.2037 7.93318V6.64713H37.7677V6.37306H38.2037V5.87091H38.613Z" fill="#2D14F4"/>
<path d="M41.0184 8.44683C40.9948 8.40594 40.9756 8.33311 40.9609 8.22833C40.7706 8.39955 40.5434 8.48516 40.2793 8.48516C40.0433 8.48516 39.8493 8.42766 39.6973 8.31266C39.5469 8.19639 39.4716 8.04945 39.4716 7.87185C39.4716 7.65591 39.566 7.48852 39.7549 7.3697C39.9452 7.24959 40.2122 7.18953 40.5559 7.18953H40.9542V7.02662C40.9542 6.90268 40.9115 6.8043 40.8259 6.73147C40.7403 6.65736 40.6142 6.6203 40.4475 6.6203C40.3014 6.6203 40.179 6.65225 40.0802 6.71613C39.9813 6.78002 39.9319 6.85732 39.9319 6.94804H39.5203C39.5203 6.84455 39.5624 6.74488 39.6464 6.64905C39.732 6.55194 39.8471 6.47528 39.9916 6.41906C40.1377 6.36284 40.2978 6.33473 40.4718 6.33473C40.7477 6.33473 40.9638 6.39478 41.1202 6.51489C41.2766 6.63372 41.3577 6.79791 41.3636 7.00746V7.96193C41.3636 8.15231 41.3916 8.30372 41.4477 8.41616V8.44683H41.0184ZM40.3391 8.17659C40.4674 8.17659 40.5891 8.14784 40.7042 8.09034C40.8193 8.03284 40.9026 7.95809 40.9542 7.8661V7.44061H40.6334C40.1318 7.44061 39.881 7.56774 39.881 7.82201C39.881 7.93318 39.9238 8.02006 40.0093 8.08267C40.0949 8.14528 40.2048 8.17659 40.3391 8.17659Z" fill="#2D14F4"/>
<defs>
<linearGradient id="paint0_linear" x1="13.4869" y1="-3.07478" x2="13.4869" y2="15.5131" gradientUnits="userSpaceOnUse">
<stop stop-color="white" stop-opacity="0"/>
<stop offset="0.473958" stop-color="#2D14F4"/>
<stop offset="1" stop-color="white"/>
</linearGradient>
<linearGradient id="paint1_linear" x1="13.4869" y1="27.3335" x2="13.4869" y2="46.8066" gradientUnits="userSpaceOnUse">
<stop stop-color="white" stop-opacity="0"/>
<stop offset="0.473958" stop-color="#2D14F4"/>
<stop offset="1" stop-color="white"/>
</linearGradient>
<linearGradient id="paint2_linear" x1="25.329" y1="-3.59028" x2="25.329" y2="14.6297" gradientUnits="userSpaceOnUse">
<stop stop-color="white"/>
<stop offset="0.5625" stop-color="#F784AD"/>
<stop offset="1" stop-color="white"/>
</linearGradient>
<linearGradient id="paint3_linear" x1="25.329" y1="26.1666" x2="25.329" y2="48.4354" gradientUnits="userSpaceOnUse">
<stop stop-color="white"/>
<stop offset="0.5625" stop-color="#F784AD"/>
<stop offset="1" stop-color="white"/>
</linearGradient>
<linearGradient id="paint4_linear" x1="16.5317" y1="4.9228" x2="16.5317" y2="43.9368" gradientUnits="userSpaceOnUse">
<stop stop-color="#2D14F4"/>
<stop offset="0.911458" stop-color="#F784AD"/>
<stop offset="1" stop-color="#EBEEFA" stop-opacity="0"/>
</linearGradient>
<linearGradient id="paint5_linear" x1="16.5712" y1="4.93575" x2="16.5712" y2="43.9497" gradientUnits="userSpaceOnUse">
<stop stop-color="white"/>
<stop offset="0.911458" stop-color="#F784AD"/>
<stop offset="1" stop-color="#EBEEFA" stop-opacity="0"/>
</linearGradient>
</defs>
</svg>
